<svg width="79" height="12" viewBox="0 0 79 12" fill="none" xmlns="http://www.w3.org/2000/svg">
<path d="M0.73 11V0.499999H2.35V9.44H9.37V11H0.73ZM19.4486 11.15C18.5186 11.15 17.6686 11.015 16.8986 10.745C16.1286 10.465 15.4586 10.08 14.8886 9.59C14.3186 9.09 13.8786 8.515 13.5686 7.865C13.2586 7.205 13.1036 6.5 13.1036 5.75C13.1036 5 13.2586 4.3 13.5686 3.65C13.8786 2.99 14.3186 2.415 14.8886 1.925C15.4586 1.425 16.1286 1.04 16.8986 0.769999C17.6686 0.489999 18.5186 0.349999 19.4486 0.349999C20.3686 0.349999 21.2136 0.489999 21.9836 0.769999C22.7536 1.04 23.4236 1.425 23.9936 1.925C24.5636 2.415 25.0036 2.99 25.3136 3.65C25.6336 4.3 25.7936 5 25.7936 5.75C25.7936 6.5 25.6336 7.205 25.3136 7.865C25.0036 8.515 24.5636 9.09 23.9936 9.59C23.4236 10.08 22.7536 10.465 21.9836 10.745C21.2136 11.015 20.3686 11.15 19.4486 11.15ZM19.4486 9.575C20.1386 9.575 20.7686 9.48 21.3386 9.29C21.9086 9.09 22.4036 8.82 22.8236 8.48C23.2436 8.13 23.5686 7.725 23.7986 7.265C24.0286 6.795 24.1436 6.29 24.1436 5.75C24.1436 5.21 24.0286 4.71 23.7986 4.25C23.5686 3.78 23.2436 3.375 22.8236 3.035C22.4036 2.685 21.9086 2.415 21.3386 2.225C20.7686 2.025 20.1386 1.925 19.4486 1.925C18.7586 1.925 18.1236 2.025 17.5436 2.225C16.9736 2.415 16.4786 2.685 16.0586 3.035C15.6386 3.375 15.3136 3.78 15.0836 4.25C14.8636 4.71 14.7536 5.21 14.7536 5.75C14.7536 6.29 14.8636 6.795 15.0836 7.265C15.3136 7.725 15.6386 8.13 16.0586 8.48C16.4786 8.82 16.9736 9.09 17.5436 9.29C18.1236 9.48 18.7586 9.575 19.4486 9.575ZM35.867 11.15C35.037 11.15 34.247 11.035 33.497 10.805C32.747 10.575 32.082 10.235 31.502 9.785C30.922 9.335 30.462 8.775 30.122 8.105C29.792 7.425 29.627 6.64 29.627 5.75C29.627 5 29.792 4.3 30.122 3.65C30.452 3 30.912 2.435 31.502 1.955C32.102 1.465 32.792 1.085 33.572 0.815C34.362 0.545 35.207 0.41 36.107 0.41C36.867 0.41 37.567 0.495 38.207 0.665C38.857 0.834999 39.427 1.055 39.917 1.325C40.417 1.595 40.807 1.885 41.087 2.195L40.037 3.38C39.677 3.1 39.287 2.86 38.867 2.66C38.457 2.45 38.017 2.285 37.547 2.165C37.087 2.045 36.607 1.985 36.107 1.985C35.437 1.985 34.812 2.08 34.232 2.27C33.662 2.46 33.157 2.725 32.717 3.065C32.287 3.405 31.952 3.805 31.712 4.265C31.472 4.715 31.352 5.21 31.352 5.75C31.352 6.41 31.477 6.985 31.727 7.475C31.987 7.955 32.337 8.35 32.777 8.66C33.217 8.97 33.712 9.2 34.262 9.35C34.822 9.5 35.402 9.575 36.002 9.575C36.612 9.575 37.182 9.52 37.712 9.41C38.252 9.29 38.722 9.125 39.122 8.915C39.522 8.695 39.832 8.44 40.052 8.15C40.272 7.86 40.367 7.545 40.337 7.205L40.322 7.01L40.562 7.34H36.077V5.765H42.077C42.097 5.915 42.112 6.035 42.122 6.125C42.132 6.215 42.137 6.285 42.137 6.335C42.137 6.375 42.137 6.415 42.137 6.455C42.137 7.245 41.982 7.935 41.672 8.525C41.372 9.115 40.942 9.605 40.382 9.995C39.832 10.375 39.172 10.665 38.402 10.865C37.642 11.055 36.797 11.15 35.867 11.15ZM54.0678 11V9.395H56.8128V2.105H54.0678V0.499999H61.1778V2.105H58.4328V9.395H61.1778V11H54.0678ZM66.7505 11V0.499999H68.3555L76.8755 9.095L76.7855 9.23C76.7355 8.93 76.6905 8.61 76.6505 8.27C76.6205 7.92 76.5955 7.565 76.5755 7.205C76.5555 6.835 76.5355 6.465 76.5155 6.095C76.5055 5.715 76.4955 5.345 76.4855 4.985C76.4855 4.625 76.4855 4.28 76.4855 3.95V0.499999H78.1055V11H76.4705L68.0555 2.72L68.0705 2.51C68.0905 2.69 68.1105 2.905 68.1305 3.155C68.1505 3.405 68.1755 3.675 68.2055 3.965C68.2355 4.255 68.2605 4.555 68.2805 4.865C68.3105 5.165 68.3305 5.47 68.3405 5.78C68.3605 6.08 68.3705 6.365 68.3705 6.635V11H66.7505Z" fill="white"/>
</svg>
