<svg width="93" height="12" viewBox="0 0 93 12" fill="none" xmlns="http://www.w3.org/2000/svg">
<path d="M0.73 11V0.499999H2.32L7.105 6.425H6.535L11.32 0.499999H12.91V11H11.29V6.545C11.29 5.715 11.31 4.935 11.35 4.205C11.39 3.475 11.47 2.73 11.59 1.97L11.755 2.585L7.315 7.985H6.325L1.885 2.585L2.05 1.97C2.17 2.73 2.25 3.475 2.29 4.205C2.33 4.935 2.35 5.715 2.35 6.545V11H0.73ZM22.1767 11V6.305L22.4767 7.46L16.8367 0.499999H19.0867L23.1817 5.795H22.8367L26.8267 0.499999H28.8367L23.7217 7.055L23.7967 6.185V11H22.1767ZM40.0464 11V0.499999H46.1814C46.8014 0.499999 47.3664 0.645 47.8764 0.935C48.3964 1.215 48.8114 1.6 49.1214 2.09C49.4314 2.58 49.5864 3.125 49.5864 3.725C49.5864 4.355 49.4164 4.93 49.0764 5.45C48.7364 5.96 48.2864 6.37 47.7264 6.68C47.1664 6.98 46.5514 7.13 45.8814 7.13H41.6664V11H40.0464ZM41.6664 5.57H45.7314C46.1114 5.57 46.4614 5.485 46.7814 5.315C47.1114 5.145 47.3714 4.92 47.5614 4.64C47.7614 4.36 47.8614 4.055 47.8614 3.725C47.8614 3.415 47.7614 3.135 47.5614 2.885C47.3714 2.635 47.1114 2.435 46.7814 2.285C46.4614 2.135 46.1114 2.06 45.7314 2.06H41.6664V5.57ZM52.0118 11L57.1418 0.499999H59.0318L64.1318 11H62.3468L58.8218 3.77C58.7318 3.58 58.6418 3.395 58.5518 3.215C58.4618 3.035 58.3718 2.855 58.2818 2.675C58.2018 2.495 58.1218 2.305 58.0418 2.105C57.9618 1.905 57.8818 1.685 57.8018 1.445L58.2818 1.43C58.1918 1.67 58.1018 1.895 58.0118 2.105C57.9318 2.315 57.8468 2.515 57.7568 2.705C57.6668 2.895 57.5768 3.085 57.4868 3.275C57.3968 3.455 57.3068 3.64 57.2168 3.83L53.7218 11H52.0118ZM54.2468 8.54L54.8918 6.98H61.1168L61.3718 8.54H54.2468ZM73.3817 11.15C72.5517 11.15 71.7617 11.035 71.0117 10.805C70.2617 10.575 69.5967 10.235 69.0167 9.785C68.4367 9.335 67.9767 8.775 67.6367 8.105C67.3067 7.425 67.1417 6.64 67.1417 5.75C67.1417 5 67.3067 4.3 67.6367 3.65C67.9667 3 68.4267 2.435 69.0167 1.955C69.6167 1.465 70.3067 1.085 71.0867 0.815C71.8767 0.545 72.7217 0.41 73.6217 0.41C74.3817 0.41 75.0817 0.495 75.7217 0.665C76.3717 0.834999 76.9417 1.055 77.4317 1.325C77.9317 1.595 78.3217 1.885 78.6017 2.195L77.5517 3.38C77.1917 3.1 76.8017 2.86 76.3817 2.66C75.9717 2.45 75.5317 2.285 75.0617 2.165C74.6017 2.045 74.1217 1.985 73.6217 1.985C72.9517 1.985 72.3267 2.08 71.7467 2.27C71.1767 2.46 70.6717 2.725 70.2317 3.065C69.8017 3.405 69.4667 3.805 69.2267 4.265C68.9867 4.715 68.8667 5.21 68.8667 5.75C68.8667 6.41 68.9917 6.985 69.2417 7.475C69.5017 7.955 69.8517 8.35 70.2917 8.66C70.7317 8.97 71.2267 9.2 71.7767 9.35C72.3367 9.5 72.9167 9.575 73.5167 9.575C74.1267 9.575 74.6967 9.52 75.2267 9.41C75.7667 9.29 76.2367 9.125 76.6367 8.915C77.0367 8.695 77.3467 8.44 77.5667 8.15C77.7867 7.86 77.8817 7.545 77.8517 7.205L77.8367 7.01L78.0767 7.34H73.5917V5.765H79.5917C79.6117 5.915 79.6267 6.035 79.6367 6.125C79.6467 6.215 79.6517 6.285 79.6517 6.335C79.6517 6.375 79.6517 6.415 79.6517 6.455C79.6517 7.245 79.4967 7.935 79.1867 8.525C78.8867 9.115 78.4567 9.605 77.8967 9.995C77.3467 10.375 76.6867 10.665 75.9167 10.865C75.1567 11.055 74.3117 11.15 73.3817 11.15ZM84.1821 11V0.499999H92.8971V2.06H85.8021V9.44H92.8971V11H84.1821ZM85.0671 6.395V4.835H92.0721V6.395H85.0671Z" fill="white"/>
</svg>
