<svg width="346" height="19" viewBox="0 0 346 19" fill="none" xmlns="http://www.w3.org/2000/svg">
<path d="M0 0.602942H2.70408V7.95588H15.3231V0.602942H18.0272V18.25H15.3231V10.6029H2.70408V18.25H0V0.602942Z" fill="#EAEEF8"/>
<path fill-rule="evenodd" clip-rule="evenodd" d="M25.238 10.6029C25.238 5.08009 29.8116 0.602942 35.4534 0.602942C41.0952 0.602942 45.6688 5.08009 45.6688 10.6029V18.25H42.9648V14.1324H27.9421V18.25H25.238V10.6029ZM27.9421 11.7794H42.9648V10.6029C42.9648 6.54202 39.6018 3.25 35.4534 3.25C31.305 3.25 27.9421 6.54202 27.9421 10.6029V11.7794Z" fill="#EAEEF8"/>
<path fill-rule="evenodd" clip-rule="evenodd" d="M56.9358 0.602942C54.6957 0.602942 52.8797 2.38064 52.8797 4.57353V18.25H55.2833V4.93301C55.2833 3.84107 56.1876 2.95588 57.303 2.95588C59.8382 2.95588 61.8933 4.96768 61.8933 7.44935V18.25H64.5974V7.44935C64.5974 4.96768 66.6525 2.95588 69.1876 2.95588C70.3031 2.95588 71.2073 3.84107 71.2073 4.93301V18.25H73.6109V4.57353C73.6109 2.38064 71.795 0.602942 69.5548 0.602942C66.6786 0.602942 64.2219 2.36131 63.2453 4.83982C62.2687 2.36131 59.812 0.602942 56.9358 0.602942Z" fill="#EAEEF8"/>
<path fill-rule="evenodd" clip-rule="evenodd" d="M96.5205 0.602942H82.925V2.66177H95.8069C96.9892 2.66177 97.9476 3.59999 97.9476 4.75735C97.9476 6.68629 96.3502 8.25 94.3798 8.25H82.925V10.6029H94.3798C96.3502 10.6029 97.9476 12.1667 97.9476 14.0956C97.9476 15.2529 96.9892 16.1912 95.8069 16.1912H82.925V18.25H96.5205C98.6362 18.25 100.351 16.5711 100.351 14.5C100.351 12.411 99.3043 10.5613 97.696 9.42647C99.3043 8.2916 100.351 6.44196 100.351 4.35294C100.351 2.28187 98.6362 0.602942 96.5205 0.602942Z" fill="#EAEEF8"/>
<path fill-rule="evenodd" clip-rule="evenodd" d="M117.627 18.25C123.85 18.25 128.894 14.2996 128.894 9.42647C128.894 4.55337 123.85 0.602942 117.627 0.602942C111.405 0.602942 106.36 4.55337 106.36 9.42647C106.36 14.2996 111.405 18.25 117.627 18.25ZM117.778 15.6029C122.258 15.6029 125.89 12.7718 125.89 9.27941C125.89 5.78702 122.258 2.95588 117.778 2.95588C113.297 2.95588 109.665 5.78702 109.665 9.27941C109.665 12.7718 113.297 15.6029 117.778 15.6029Z" fill="#EAEEF8"/>
<path fill-rule="evenodd" clip-rule="evenodd" d="M145.569 18.25C151.792 18.25 156.836 14.2996 156.836 9.42647C156.836 4.55337 151.792 0.602942 145.569 0.602942C139.347 0.602942 134.302 4.55337 134.302 9.42647C134.302 14.2996 139.347 18.25 145.569 18.25ZM145.72 15.6029C150.2 15.6029 153.832 12.7718 153.832 9.27941C153.832 5.78702 150.2 2.95588 145.72 2.95588C141.239 2.95588 137.607 5.78702 137.607 9.27941C137.607 12.7718 141.239 15.6029 145.72 15.6029Z" fill="#EAEEF8"/>
<path fill-rule="evenodd" clip-rule="evenodd" d="M259.141 18.25C265.363 18.25 270.408 14.2996 270.408 9.42647C270.408 4.55337 265.363 0.602942 259.141 0.602942C252.918 0.602942 247.874 4.55337 247.874 9.42647C247.874 14.2996 252.918 18.25 259.141 18.25ZM259.291 15.6029C263.771 15.6029 267.403 12.7718 267.403 9.27941C267.403 5.78702 263.771 2.95588 259.291 2.95588C254.811 2.95588 251.179 5.78702 251.179 9.27941C251.179 12.7718 254.811 15.6029 259.291 15.6029Z" fill="#EAEEF8"/>
<path fill-rule="evenodd" clip-rule="evenodd" d="M183.577 0.602942H179.971L164.348 8.25V10.6029L179.971 18.25H183.577V17.0735L167.653 9.42647L183.577 1.77941V0.602942Z" fill="#EAEEF8"/>
<path fill-rule="evenodd" clip-rule="evenodd" d="M322.386 0.602942H318.78L303.157 8.25V10.6029L318.78 18.25H322.386V17.0735L306.462 9.42647L322.386 1.77941V0.602942Z" fill="#EAEEF8"/>
<path d="M191.689 10.0147H194.093V12.3676H191.689V10.0147Z" fill="#EAEEF8"/>
<path d="M243.367 0.89706H226.541V3.25H233.452V18.25H236.456V3.25H243.367V0.89706Z" fill="#EAEEF8"/>
<path d="M293.289 13.4871C291.803 14.7854 289.64 15.6029 287.233 15.6029C282.753 15.6029 279.121 12.7718 279.121 9.27941C279.121 5.78702 282.753 2.95588 287.233 2.95588C289.743 2.95588 291.987 3.84471 293.475 5.24066L295.704 3.74589C293.638 1.82404 290.542 0.602942 287.083 0.602942C280.86 0.602942 275.816 4.55337 275.816 9.42647C275.816 14.2996 280.86 18.25 287.083 18.25C290.542 18.25 293.638 17.0289 295.704 15.107L293.289 13.4871Z" fill="#EAEEF8"/>
<path d="M337.598 18.5C336.321 18.5 335.138 18.375 334.048 18.125C332.975 17.875 331.988 17.5 331.086 17C330.2 16.5 329.391 15.8667 328.659 15.1L330.396 12.85C331.503 13.9667 332.626 14.7833 333.767 15.3C334.925 15.8167 336.21 16.075 337.623 16.075C338.509 16.075 339.36 15.975 340.177 15.775C340.994 15.5583 341.667 15.2417 342.195 14.825C342.723 14.3917 342.986 13.85 342.986 13.2C342.986 12.7833 342.842 12.4417 342.552 12.175C342.263 11.9083 341.88 11.6917 341.403 11.525C340.943 11.3583 340.441 11.225 339.896 11.125C339.352 11.025 338.824 10.95 338.313 10.9C337.819 10.85 337.402 10.8083 337.062 10.775C335.921 10.625 334.882 10.425 333.946 10.175C333.026 9.90833 332.235 9.575 331.571 9.175C330.924 8.775 330.422 8.28333 330.064 7.7C329.723 7.11667 329.553 6.44167 329.553 5.675C329.553 4.85833 329.749 4.13333 330.141 3.5C330.549 2.85 331.111 2.30833 331.826 1.875C332.558 1.425 333.401 1.08333 334.354 0.85C335.325 0.616667 336.372 0.5 337.496 0.5C338.688 0.5 339.777 0.616667 340.765 0.85C341.752 1.08333 342.629 1.43333 343.395 1.9C344.178 2.35 344.825 2.90833 345.336 3.575L343.497 5.55C343.021 4.98333 342.467 4.50833 341.837 4.125C341.207 3.725 340.518 3.425 339.769 3.225C339.036 3.025 338.253 2.925 337.419 2.925C336.5 2.925 335.674 3.025 334.942 3.225C334.21 3.425 333.631 3.70833 333.205 4.075C332.78 4.425 332.567 4.85833 332.567 5.375C332.567 5.825 332.694 6.20833 332.95 6.525C333.222 6.84167 333.597 7.10833 334.074 7.325C334.55 7.525 335.121 7.69167 335.785 7.825C336.466 7.95833 337.215 8.075 338.032 8.175C339.054 8.29167 340.041 8.44167 340.994 8.625C341.948 8.80833 342.799 9.06667 343.548 9.4C344.297 9.71667 344.893 10.15 345.336 10.7C345.779 11.25 346 11.9667 346 12.85C346 13.9833 345.651 14.975 344.953 15.825C344.255 16.675 343.276 17.3333 342.016 17.8C340.773 18.2667 339.3 18.5 337.598 18.5Z" fill="#EAEEF8"/>
<path d="M212.609 18.5C211.333 18.5 210.149 18.375 209.06 18.125C207.987 17.875 207 17.5 206.097 17C205.212 16.5 204.403 15.8667 203.671 15.1L205.408 12.85C206.514 13.9667 207.638 14.7833 208.779 15.3C209.936 15.8167 211.222 16.075 212.635 16.075C213.52 16.075 214.372 15.975 215.189 15.775C216.006 15.5583 216.679 15.2417 217.206 14.825C217.734 14.3917 217.998 13.85 217.998 13.2C217.998 12.7833 217.853 12.4417 217.564 12.175C217.274 11.9083 216.891 11.6917 216.415 11.525C215.955 11.3583 215.453 11.225 214.908 11.125C214.363 11.025 213.835 10.95 213.325 10.9C212.831 10.85 212.414 10.8083 212.073 10.775C210.932 10.625 209.894 10.425 208.957 10.175C208.038 9.90833 207.246 9.575 206.582 9.175C205.935 8.775 205.433 8.28333 205.076 7.7C204.735 7.11667 204.565 6.44167 204.565 5.675C204.565 4.85833 204.761 4.13333 205.152 3.5C205.561 2.85 206.123 2.30833 206.838 1.875C207.57 1.425 208.413 1.08333 209.366 0.85C210.337 0.616667 211.384 0.5 212.507 0.5C213.699 0.5 214.789 0.616667 215.776 0.85C216.764 1.08333 217.641 1.43333 218.407 1.9C219.19 2.35 219.837 2.90833 220.348 3.575L218.509 5.55C218.032 4.98333 217.479 4.50833 216.849 4.125C216.219 3.725 215.529 3.425 214.78 3.225C214.048 3.025 213.265 2.925 212.431 2.925C211.511 2.925 210.686 3.025 209.953 3.225C209.221 3.425 208.642 3.70833 208.217 4.075C207.791 4.425 207.578 4.85833 207.578 5.375C207.578 5.825 207.706 6.20833 207.961 6.525C208.234 6.84167 208.608 7.10833 209.085 7.325C209.562 7.525 210.132 7.69167 210.796 7.825C211.477 7.95833 212.226 8.075 213.044 8.175C214.065 8.29167 215.053 8.44167 216.006 8.625C216.96 8.80833 217.811 9.06667 218.56 9.4C219.309 9.71667 219.905 10.15 220.348 10.7C220.79 11.25 221.012 11.9667 221.012 12.85C221.012 13.9833 220.663 14.975 219.965 15.825C219.266 16.675 218.288 17.3333 217.028 17.8C215.785 18.2667 214.312 18.5 212.609 18.5Z" fill="#EAEEF8"/>
</svg>
